<svg data-name="Capa 1" xmlns="http://www.w3.org/2000/svg" viewBox="0 0 75 75"><circle cx="37.5" cy="37.5" r="37.5" fill="#fff"/><path d="M23.461 31.967h6.07V51.5h-6.07zm21.249-.443a7.026 7.026 0 00-6.032 3.154h-.122l-.277-2.714h-5.274c.081 1.755.159 3.794.159 6.232V51.5h6.073V40.235a4.277 4.277 0 01.2-1.517 3.333 3.333 0 013.113-2.273c2.2 0 3.075 1.711 3.075 4.23V51.5H51.7V39.951c0-5.751-3-8.427-6.99-8.427zM26.536 23.5a3.039 3.039 0 10-.078 6.069 3.041 3.041 0 10.078-6.069z" fill="#0068a9"/></svg>