<svg id="Capa_1" data-name="Capa 1" xmlns="http://www.w3.org/2000/svg" viewBox="0 0 75 75"><defs><style>.cls-1{fill:#fff;}.cls-2{fill:#0068a9;}</style></defs><title>linke</title><circle class="cls-1" cx="37.5" cy="37.5" r="37.5"/><rect class="cls-2" x="23.461" y="31.967" width="6.07" height="19.533"/><path class="cls-2" d="M44.71,31.524a7.026,7.026,0,0,0-6.032,3.154h-.122l-.277-2.714H33.005c.081,1.755.159,3.794.159,6.232V51.5h6.073V40.235a4.277,4.277,0,0,1,.2-1.517,3.333,3.333,0,0,1,3.113-2.273c2.2,0,3.075,1.711,3.075,4.23V51.5H51.7V39.951C51.7,34.2,48.7,31.524,44.71,31.524Z" transform="translate(0 0)"/><path class="cls-2" d="M26.536,23.5a3.039,3.039,0,1,0-.078,6.069,3.041,3.041,0,1,0,.078-6.069Z" transform="translate(0 0)"/></svg>