<svg id="Capa_1" data-name="Capa 1" xmlns="http://www.w3.org/2000/svg" viewBox="0 0 50 68.645"><defs><style>.cls-1{fill:#0068a8;}</style></defs><title>marker</title><path class="cls-1" d="M25.1,0C11.449,0,.409,11.04.008,25.09S14.66,59.011,21.183,66.839A5.3,5.3,0,0,0,25,68.645a5.118,5.118,0,0,0,3.812-1.806c6.524-7.828,21.68-27.7,21.178-41.749C49.787,11.04,38.747,0,25.1,0Zm.052,22.681h1.622v1.743H25.15Zm0,2.24h1.622v1.743H25.15Zm-2.108-2.24h1.622v1.743H23.042Zm0,2.24h1.622v1.743H23.042Zm10.717-4.6v8.5a9.4,9.4,0,0,1-.611,3.433A7.787,7.787,0,0,1,31.4,34.943,7.875,7.875,0,0,1,28.666,36.7a8.383,8.383,0,0,1-1.294.378,10.74,10.74,0,0,1-2.357.247H24.84a10.083,10.083,0,0,1-3.492-.625,7.852,7.852,0,0,1-2.75-1.761,7.611,7.611,0,0,1-1.731-2.692,9.588,9.588,0,0,1-.6-3.433v-8.5l-3.565-.014,3.565-3.55h.014L21,12.043v17.27q.011.05.015.087v.014a6.286,6.286,0,0,0,.247,1.31,4.373,4.373,0,0,0,.786,1.44,3.52,3.52,0,0,0,1.265.917,4.9,4.9,0,0,0,3.4,0,3.618,3.618,0,0,0,1.266-.9,4.04,4.04,0,0,0,.771-1.441,6.162,6.162,0,0,0,.276-1.92V16.757h4.729v.014l3.535,3.55Z"/></svg>