<svg data-name="Capa 1" xmlns="http://www.w3.org/2000/svg" viewBox="0 0 50 68.645"><path d="M25.1 0C11.449 0 .409 11.04.008 25.09S14.66 59.011 21.183 66.839A5.3 5.3 0 0025 68.645a5.118 5.118 0 003.812-1.806c6.524-7.828 21.68-27.7 21.178-41.749C49.787 11.04 38.747 0 25.1 0zm.052 22.681h1.622v1.743H25.15zm0 2.24h1.622v1.743H25.15zm-2.108-2.24h1.622v1.743h-1.624zm0 2.24h1.622v1.743h-1.624zm10.717-4.6v8.5a9.4 9.4 0 01-.611 3.433 7.787 7.787 0 01-1.75 2.689 7.875 7.875 0 01-2.734 1.757 8.383 8.383 0 01-1.294.378 10.74 10.74 0 01-2.357.247h-.175a10.083 10.083 0 01-3.492-.625 7.852 7.852 0 01-2.75-1.761 7.611 7.611 0 01-1.731-2.692 9.588 9.588 0 01-.6-3.433v-8.5l-3.565-.014 3.565-3.55h.014L21 12.043v17.27q.011.05.015.087v.014a6.286 6.286 0 00.247 1.31 4.373 4.373 0 00.786 1.44 3.52 3.52 0 001.265.917 4.9 4.9 0 003.4 0 3.618 3.618 0 001.266-.9 4.04 4.04 0 00.771-1.441 6.162 6.162 0 00.276-1.92V16.757h4.729v.014l3.535 3.55z" fill="#0068a8"/></svg>