<svg data-name="Capa 1" xmlns="http://www.w3.org/2000/svg" viewBox="0 0 10 15"><path d="M6.116 14.935l-.016-.006c-2.286-1.022-3.893-4.02-4.838-6.356S-.587 3.039.487 1.083C.863.4 3.57.017 3.6.013a1.093 1.093 0 011.28.626c.05.25.426 2.777.462 3.061s-.188.618-.6.865c-.228.137-.955.546-1.3.736a13.086 13.086 0 00.78 2.44 13.9 13.9 0 001.155 2.336c.41-.02 1.286-.062 1.567-.067a1.341 1.341 0 011.1.381c.193.257 1.723 2.461 1.861 2.669a.63.63 0 01.023.616 1.165 1.165 0 01-.586.531c-.02.011-2.421 1.06-3.226.728z" fill="#0068a8"/></svg>