<svg id="Capa_1" data-name="Capa 1" xmlns="http://www.w3.org/2000/svg" viewBox="0 0 75 75"><defs><style>.cls-1{fill:#fff;}.cls-2{fill:#0068a9;}</style></defs><title>twitter</title><circle class="cls-1" cx="37.5" cy="37.5" r="37.5"/><path class="cls-2" d="M50.863,26.427a11.659,11.659,0,0,1-3.684,1.409,5.806,5.806,0,0,0-10.043,3.97,5.735,5.735,0,0,0,.15,1.326,16.5,16.5,0,0,1-11.965-6.07,5.819,5.819,0,0,0,1.8,7.756,5.823,5.823,0,0,1-2.631-.728v.071a5.81,5.81,0,0,0,4.657,5.692,5.828,5.828,0,0,1-1.529.2,6.083,6.083,0,0,1-1.089-.1,5.814,5.814,0,0,0,5.422,4.028,11.627,11.627,0,0,1-7.21,2.484,11.263,11.263,0,0,1-1.384-.077,16.382,16.382,0,0,0,8.9,2.61c10.678,0,16.515-8.846,16.515-16.522,0-.245,0-.5-.015-.749a11.756,11.756,0,0,0,2.9-3.006,11.639,11.639,0,0,1-3.334.918A5.831,5.831,0,0,0,50.863,26.427Z" transform="translate(0 0)"/></svg>