<svg id="Capa_1" data-name="Capa 1" xmlns="http://www.w3.org/2000/svg" viewBox="0 0 66 66"><defs><style>.cls-1{fill:#03aff7;}</style></defs><title>reloj</title><path class="cls-1" d="M33,0A33,33,0,1,0,66,33,33.022,33.022,0,0,0,33,0Zm0,2.87A30.13,30.13,0,1,1,2.87,33,30.107,30.107,0,0,1,33,2.87Zm-.022,4.284a1.435,1.435,0,0,0-1.413,1.455V28.945a4.292,4.292,0,0,0-2.446,5.907l-8.612,8.612a1.435,1.435,0,0,0,1.988,2.07l.041-.041,8.612-8.612a4.3,4.3,0,1,0,3.287-7.933V8.609A1.435,1.435,0,0,0,33.02,7.154Z"/></svg>